<mxfile host="app.diagrams.net" modified="2023-03-14T03:22:47.788Z" agent="5.0 (Windows NT 10.0; Win64; x64) AppleWebKit/537.36 (KHTML, like Gecko) Chrome/95.0.4638.69 Safari/537.36" etag="c3nIfDv27kba_84NuaiL" version="21.0.6" type="github">
  <diagram name="Page-1" id="4kcIpLPUKu5Sv7il6b4U">
    <mxGraphModel dx="1050" dy="523" grid="1" gridSize="10" guides="1" tooltips="1" connect="1" arrows="1" fold="1" page="1" pageScale="1" pageWidth="827" pageHeight="1169" math="0" shadow="0">
      <root>
        <mxCell id="0" />
        <mxCell id="1" parent="0" />
        <mxCell id="Dt28t0xwf_UTfzKJX8az-3" value="" style="edgeStyle=orthogonalEdgeStyle;rounded=0;orthogonalLoop=1;jettySize=auto;html=1;" edge="1" parent="1" source="Dt28t0xwf_UTfzKJX8az-1" target="Dt28t0xwf_UTfzKJX8az-2">
          <mxGeometry relative="1" as="geometry" />
        </mxCell>
        <mxCell id="Dt28t0xwf_UTfzKJX8az-1" value="现象" style="rounded=1;whiteSpace=wrap;html=1;" vertex="1" parent="1">
          <mxGeometry x="80" y="80" width="120" height="60" as="geometry" />
        </mxCell>
        <mxCell id="Dt28t0xwf_UTfzKJX8az-5" value="" style="edgeStyle=orthogonalEdgeStyle;rounded=0;orthogonalLoop=1;jettySize=auto;html=1;" edge="1" parent="1" source="Dt28t0xwf_UTfzKJX8az-2" target="Dt28t0xwf_UTfzKJX8az-4">
          <mxGeometry relative="1" as="geometry" />
        </mxCell>
        <mxCell id="Dt28t0xwf_UTfzKJX8az-2" value="" style="whiteSpace=wrap;html=1;rounded=1;" vertex="1" parent="1">
          <mxGeometry x="280" y="80" width="120" height="60" as="geometry" />
        </mxCell>
        <mxCell id="Dt28t0xwf_UTfzKJX8az-7" value="" style="edgeStyle=orthogonalEdgeStyle;rounded=0;orthogonalLoop=1;jettySize=auto;html=1;" edge="1" parent="1" source="Dt28t0xwf_UTfzKJX8az-4" target="Dt28t0xwf_UTfzKJX8az-6">
          <mxGeometry relative="1" as="geometry" />
        </mxCell>
        <mxCell id="Dt28t0xwf_UTfzKJX8az-4" value="" style="whiteSpace=wrap;html=1;rounded=1;" vertex="1" parent="1">
          <mxGeometry x="480" y="80" width="120" height="60" as="geometry" />
        </mxCell>
        <mxCell id="Dt28t0xwf_UTfzKJX8az-6" value="" style="whiteSpace=wrap;html=1;rounded=1;" vertex="1" parent="1">
          <mxGeometry x="680" y="80" width="120" height="60" as="geometry" />
        </mxCell>
      </root>
    </mxGraphModel>
  </diagram>
</mxfile>
